<svg xmlns="http://www.w3.org/2000/svg" width="345" height="120">
  <rect class='white-key' id='C' style="fill:white;stroke:black" x="0" y="0" width="23" height="120"/>
  <text x="6.8125" y="105" style="font-size: small;">C</text>
  <rect class='white-key' id='D' style="fill:white;stroke:black" x="23" y="0" width="23" height="120"/>
  <text x="29.8125" y="105" style="font-size: small;">D</text>
  <rect class='white-key' id='E' style="fill:white;stroke:black" x="46" y="0" width="23" height="120"/>
  <text x="52.8125" y="105" style="font-size: small;">E</text>
  <rect class='white-key' id='F' style="fill:white;stroke:black" x="69" y="0" width="23" height="120"/>
  <text x="75.8125" y="105" style="font-size: small;">F</text>
  <rect class='white-key' id='G' style="fill:white;stroke:black" x="92" y="0" width="23" height="120"/>
  <text x="98.8125" y="105" style="font-size: small;">G</text>
  <rect class='white-key' id='A' style="fill:white;stroke:black" x="115" y="0" width="23" height="120"/>
  <text x="121.8125" y="105" style="font-size: small;">A</text>
  <rect class='white-key' id='B' style="fill:white;stroke:black" x="138" y="0" width="23" height="120"/>
  <text x="144.8125" y="105" style="font-size: small;">B</text>
  <rect class='white-key' id='C' style="fill:white;stroke:black" x="161" y="0" width="23" height="120"/>
  <text x="167.8125" y="105" style="font-size: small;">C</text>
  <rect class='white-key' id='D' style="fill:white;stroke:black" x="184" y="0" width="23" height="120"/>
  <text x="190.8125" y="105" style="font-size: small;">D</text>
  <rect class='white-key' id='E' style="fill:white;stroke:black" x="207" y="0" width="23" height="120"/>
  <text x="213.8125" y="105" style="font-size: small;">E</text>
  <rect class='white-key' id='F' style="fill:white;stroke:black" x="230" y="0" width="23" height="120"/>
  <text x="236.8125" y="105" style="font-size: small;">F</text>
  <rect class='white-key' id='G' style="fill:white;stroke:black" x="253" y="0" width="23" height="120"/>
  <text x="259.8125" y="105" style="font-size: small;">G</text>
  <rect class='white-key' id='A' style="fill:white;stroke:black" x="276" y="0" width="23" height="120"/>
  <text x="282.8125" y="105" style="font-size: small;">A</text>
  <rect class='white-key' id='B' style="fill:white;stroke:black" x="299" y="0" width="23" height="120"/>
  <text x="305.8125" y="105" style="font-size: small;">B</text>
  <rect class='white-key' id='C' style="fill:white;stroke:black" x="322" y="0" width="23" height="120"/>
  <text x="328.8125" y="105" style="font-size: small;">C</text>
  
  <rect class='black-key' id='C#' style="fill:black;stroke:black" x="14.333" y="0" width="13.42" height="80"/>
  <rect class='black-key' id='D#' style="fill:black;stroke:black" x="41.666" y="0" width="13.42" height="80"/>
  <rect class='black-key' id='F#' style="fill:black;stroke:black" x="82.25" y="0" width="13.42" height="80"/>
  <rect class='black-key' id='G#' style="fill:black;stroke:black" x="108.25" y="0" width="13.42" height="80"/>
  <rect class='black-key' id='A#' style="fill:black;stroke:black" x="134.75" y="0" width="13.42" height="80"/>
  <rect class='black-key' id='C#' style="fill:black;stroke:black" x="175.33" y="0" width="13.42" height="80"/>
  <rect class='black-key' id='D#' style="fill:black;stroke:black" x="202.66" y="0" width="13.42" height="80"/>
  <rect class='black-key' id='F#' style="fill:black;stroke:black" x="243.25" y="0" width="13.42" height="80"/>
  <rect class='black-key' id='G#' style="fill:black;stroke:black" x="269.25" y="0" width="13.42" height="80"/>
  <rect class='black-key' id='A#' style="fill:black;stroke:black" x="295.75" y="0" width="13.42" height="80"/>
</svg>
